0
SECTION
2
HEADER
9
$INSUNITS
70
4
0
ENDSEC
0
SECTION
2
TABLES
0
TABLE
2
LTYPE
0
LTYPE
72
65
70
64
2
CONTINUOUS
3
______
73
0
40
0
0
ENDTAB
0
TABLE
2
LAYER
0
ENDTAB
0
ENDSEC
0
SECTION
2
ENTITIES
0
LINE
8
0
10
320.6360702
20
108.23641
11
-5.9039299
21
108.23641
0
LINE
8
0
10
-11.9039299
20
102.23641
11
-11.9039299
21
-1.4580949
0
LINE
8
0
10
-7.4549803
20
-7.2541489
11
111.9114531
21
-39.1971439
0
LINE
8
0
10
113.4625036
20
-39.4010899
11
144.2248896
21
-39.40109
0
LINE
8
0
10
145.7659601
20
-39.1998055
11
270.6336802
21
-6.0148745
0
LINE
8
0
10
272.1747507
20
-5.81359
11
320.6360702
21
-5.81359
0
LINE
8
0
10
326.6360702
20
0.18641
11
326.6360702
21
102.23641
0
ARC
8
0
10
-5.9039299
20
102.23641
40
6
50
90
51
180
0
ARC
8
0
10
-5.9039299
20
-1.4580949
40
6
50
180
51
255.0184256
0
ARC
8
0
10
113.4625036
20
-33.4010899
40
6
50
255.0184256
51
270
0
ARC
8
0
10
144.2248896
20
-33.40109
40
6
50
270
51
284.8829433
0
ARC
8
0
10
272.1747507
20
-11.81359
40
6
50
90
51
104.8829433
0
ARC
8
0
10
320.6360702
20
0.18641
40
6
50
270
51
0
0
ARC
8
0
10
320.6360702
20
102.23641
40
6
50
0
51
90
0
LINE
8
0
10
-8.8205146
20
-4.4942767
11
4.4942767
21
-8.8205146
0
LINE
8
0
10
4.4942767
20
-8.8205146
11
8.8205146
21
4.4942767
0
LINE
8
0
10
8.8205146
20
4.4942767
11
-4.4942767
21
8.8205146
0
LINE
8
0
10
-4.4942767
20
8.8205146
11
-8.8205146
21
-4.4942767
0
LINE
8
0
10
-2.9491917
20
13.5757971
11
10.3655996
21
9.2495592
0
LINE
8
0
10
10.3655996
20
9.2495592
11
14.6918375
21
22.5643505
0
LINE
8
0
10
14.6918375
20
22.5643505
11
1.3770462
21
26.8905884
0
LINE
8
0
10
1.3770462
20
26.8905884
11
-2.9491917
21
13.5757971
0
LINE
8
0
10
2.9221312
20
31.6458709
11
16.2369225
21
27.319633
0
LINE
8
0
10
16.2369225
20
27.319633
11
20.5631604
21
40.6344243
0
LINE
8
0
10
20.5631604
20
40.6344243
11
7.2483691
21
44.9606622
0
LINE
8
0
10
7.2483691
20
44.9606622
11
2.9221312
21
31.6458709
0
LINE
8
0
10
8.7934541
20
49.7159447
11
22.1082454
21
45.3897068
0
LINE
8
0
10
22.1082454
20
45.3897068
11
26.4344833
21
58.7044981
0
LINE
8
0
10
26.4344833
20
58.7044981
11
13.119692
21
63.030736
0
LINE
8
0
10
13.119692
20
63.030736
11
8.7934541
21
49.7159447
0
LINE
8
0
10
14.664777
20
67.7860185
11
27.9795683
21
63.4597806
0
LINE
8
0
10
27.9795683
20
63.4597806
11
32.3058062
21
76.7745719
0
LINE
8
0
10
32.3058062
20
76.7745719
11
18.9910149
21
81.1008098
0
LINE
8
0
10
18.9910149
20
81.1008098
11
14.664777
21
67.7860185
0
LINE
8
0
10
10.426914
20
-6.7420743
11
23.7417053
21
-11.0683122
0
LINE
8
0
10
23.7417053
20
-11.0683122
11
28.0679432
21
2.2464791
0
LINE
8
0
10
28.0679432
20
2.2464791
11
14.7531519
21
6.572717
0
LINE
8
0
10
14.7531519
20
6.572717
11
10.426914
21
-6.7420743
0
LINE
8
0
10
16.2982369
20
11.3279995
11
29.6130282
21
7.0017616
0
LINE
8
0
10
29.6130282
20
7.0017616
11
33.9392661
21
20.3165529
0
LINE
8
0
10
33.9392661
20
20.3165529
11
20.6244748
21
24.6427908
0
LINE
8
0
10
20.6244748
20
24.6427908
11
16.2982369
21
11.3279995
0
LINE
8
0
10
22.1695597
20
29.3980734
11
35.484351
21
25.0718355
0
LINE
8
0
10
35.484351
20
25.0718355
11
39.8105889
21
38.3866268
0
LINE
8
0
10
39.8105889
20
38.3866268
11
26.4957976
21
42.7128647
0
LINE
8
0
10
26.4957976
20
42.7128647
11
22.1695597
21
29.3980734
0
LINE
8
0
10
28.0408826
20
47.4681472
11
41.3556739
21
43.1419093
0
LINE
8
0
10
41.3556739
20
43.1419093
11
45.6819118
21
56.4567006
0
LINE
8
0
10
45.6819118
20
56.4567006
11
32.3671205
21
60.7829385
0
LINE
8
0
10
32.3671205
20
60.7829385
11
28.0408826
21
47.4681472
0
LINE
8
0
10
33.9122055
20
65.538221
11
47.2269968
21
61.2119831
0
LINE
8
0
10
47.2269968
20
61.2119831
11
51.5532347
21
74.5267744
0
LINE
8
0
10
51.5532347
20
74.5267744
11
38.2384434
21
78.8530123
0
LINE
8
0
10
38.2384434
20
78.8530123
11
33.9122055
21
65.538221
0
LINE
8
0
10
32.6177294
20
0.0689415
11
45.9325207
21
-4.2572964
0
LINE
8
0
10
45.9325207
20
-4.2572964
11
50.2587586
21
9.0574949
0
LINE
8
0
10
50.2587586
20
9.0574949
11
36.9439673
21
13.3837328
0
LINE
8
0
10
36.9439673
20
13.3837328
11
32.6177294
21
0.0689415
0
LINE
8
0
10
38.4890523
20
18.1390153
11
51.8038436
21
13.8127774
0
LINE
8
0
10
51.8038436
20
13.8127774
11
56.1300815
21
27.1275687
0
LINE
8
0
10
56.1300815
20
27.1275687
11
42.8152902
21
31.4538066
0
LINE
8
0
10
42.8152902
20
31.4538066
11
38.4890523
21
18.1390153
0
LINE
8
0
10
44.3603752
20
36.2090891
11
57.6751665
21
31.8828512
0
LINE
8
0
10
57.6751665
20
31.8828512
11
62.0014044
21
45.1976425
0
LINE
8
0
10
62.0014044
20
45.1976425
11
48.6866131
21
49.5238804
0
LINE
8
0
10
48.6866131
20
49.5238804
11
44.3603752
21
36.2090891
0
LINE
8
0
10
50.2316981
20
54.2791629
11
63.5464894
21
49.952925
0
LINE
8
0
10
63.5464894
20
49.952925
11
67.8727273
21
63.2677163
0
LINE
8
0
10
67.8727273
20
63.2677163
11
54.557936
21
67.5939542
0
LINE
8
0
10
54.557936
20
67.5939542
11
50.2316981
21
54.2791629
0
LINE
8
0
10
56.103021
20
72.3492367
11
69.4178123
21
68.0229988
0
LINE
8
0
10
69.4178123
20
68.0229988
11
73.7440502
21
81.3377901
0
LINE
8
0
10
73.7440502
20
81.3377901
11
60.4292589
21
85.664028
0
LINE
8
0
10
60.4292589
20
85.664028
11
56.103021
21
72.3492367
0
LINE
8
0
10
53.0425127
20
1.4446692
11
66.357304
21
-2.8815687
0
LINE
8
0
10
66.357304
20
-2.8815687
11
70.6835419
21
10.4332226
0
LINE
8
0
10
70.6835419
20
10.4332226
11
57.3687506
21
14.7594605
0
LINE
8
0
10
57.3687506
20
14.7594605
11
53.0425127
21
1.4446692
0
LINE
8
0
10
58.9138356
20
19.5147431
11
72.2286269
21
15.1885052
0
LINE
8
0
10
72.2286269
20
15.1885052
11
76.5548648
21
28.5032965
0
LINE
8
0
10
76.5548648
20
28.5032965
11
63.2400735
21
32.8295344
0
LINE
8
0
10
63.2400735
20
32.8295344
11
58.9138356
21
19.5147431
0
LINE
8
0
10
64.7851585
20
37.5848169
11
78.0999498
21
33.258579
0
LINE
8
0
10
78.0999498
20
33.258579
11
82.4261877
21
46.5733703
0
LINE
8
0
10
82.4261877
20
46.5733703
11
69.1113964
21
50.8996082
0
LINE
8
0
10
69.1113964
20
50.8996082
11
64.7851585
21
37.5848169
0
LINE
8
0
10
70.6564814
20
55.6548907
11
83.9712727
21
51.3286528
0
LINE
8
0
10
83.9712727
20
51.3286528
11
88.2975106
21
64.6434441
0
LINE
8
0
10
88.2975106
20
64.6434441
11
74.9827193
21
68.969682
0
LINE
8
0
10
74.9827193
20
68.969682
11
70.6564814
21
55.6548907
0
LINE
8
0
10
76.5278043
20
73.7249645
11
89.8425956
21
69.3987266
0
LINE
8
0
10
89.8425956
20
69.3987266
11
94.1688335
21
82.7135179
0
LINE
8
0
10
94.1688335
20
82.7135179
11
80.8540422
21
87.0397558
0
LINE
8
0
10
80.8540422
20
87.0397558
11
76.5278043
21
73.7249645
0
LINE
8
0
10
68.757877
20
-11.6737043
11
82.0726683
21
-15.9999422
0
LINE
8
0
10
82.0726683
20
-15.9999422
11
86.3989062
21
-2.6851509
0
LINE
8
0
10
86.3989062
20
-2.6851509
11
73.0841149
21
1.641087
0
LINE
8
0
10
73.0841149
20
1.641087
11
68.757877
21
-11.6737043
0
LINE
8
0
10
74.6291999
20
6.3963695
11
87.9439912
21
2.0701316
0
LINE
8
0
10
87.9439912
20
2.0701316
11
92.2702291
21
15.3849229
0
LINE
8
0
10
92.2702291
20
15.3849229
11
78.9554378
21
19.7111608
0
LINE
8
0
10
78.9554378
20
19.7111608
11
74.6291999
21
6.3963695
0
LINE
8
0
10
80.5005228
20
24.4664433
11
93.8153141
21
20.1402054
0
LINE
8
0
10
93.8153141
20
20.1402054
11
98.141552
21
33.4549967
0
LINE
8
0
10
98.141552
20
33.4549967
11
84.8267607
21
37.7812346
0
LINE
8
0
10
84.8267607
20
37.7812346
11
80.5005228
21
24.4664433
0
LINE
8
0
10
86.3718457
20
42.5365171
11
99.686637
21
38.2102792
0
LINE
8
0
10
99.686637
20
38.2102792
11
104.0128749
21
51.5250705
0
LINE
8
0
10
104.0128749
20
51.5250705
11
90.6980836
21
55.8513084
0
LINE
8
0
10
90.6980836
20
55.8513084
11
86.3718457
21
42.5365171
0
LINE
8
0
10
92.2431686
20
60.6065909
11
105.5579599
21
56.280353
0
LINE
8
0
10
105.5579599
20
56.280353
11
109.8841978
21
69.5951443
0
LINE
8
0
10
109.8841978
20
69.5951443
11
96.5694065
21
73.9213822
0
LINE
8
0
10
96.5694065
20
73.9213822
11
92.2431686
21
60.6065909
0
LINE
8
0
10
85.6505961
20
-21.1685525
11
98.9653874
21
-25.4947904
0
LINE
8
0
10
98.9653874
20
-25.4947904
11
103.2916253
21
-12.1799991
0
LINE
8
0
10
103.2916253
20
-12.1799991
11
89.976834
21
-7.8537612
0
LINE
8
0
10
89.976834
20
-7.8537612
11
85.6505961
21
-21.1685525
0
LINE
8
0
10
91.521919
20
-3.0984787
11
104.8367103
21
-7.4247166
0
LINE
8
0
10
104.8367103
20
-7.4247166
11
109.1629482
21
5.8900747
0
LINE
8
0
10
109.1629482
20
5.8900747
11
95.8481569
21
10.2163126
0
LINE
8
0
10
95.8481569
20
10.2163126
11
91.521919
21
-3.0984787
0
LINE
8
0
10
97.3932419
20
14.9715951
11
110.7080332
21
10.6453572
0
LINE
8
0
10
110.7080332
20
10.6453572
11
115.0342711
21
23.9601485
0
LINE
8
0
10
115.0342711
20
23.9601485
11
101.7194798
21
28.2863864
0
LINE
8
0
10
101.7194798
20
28.2863864
11
97.3932419
21
14.9715951
0
LINE
8
0
10
103.2645647
20
33.0416689
11
116.579356
21
28.715431
0
LINE
8
0
10
116.579356
20
28.715431
11
120.9055939
21
42.0302223
0
LINE
8
0
10
120.9055939
20
42.0302223
11
107.5908026
21
46.3564602
0
LINE
8
0
10
107.5908026
20
46.3564602
11
103.2645647
21
33.0416689
0
LINE
8
0
10
109.1358876
20
51.1117427
11
122.4506789
21
46.7855048
0
LINE
8
0
10
122.4506789
20
46.7855048
11
126.7769168
21
60.1002961
0
LINE
8
0
10
126.7769168
20
60.1002961
11
113.4621255
21
64.426534
0
LINE
8
0
10
113.4621255
20
64.426534
11
109.1358876
21
51.1117427
0
LINE
8
0
10
103.9487599
20
-27.4553728
11
113.3165884
21
-37.8594003
0
LINE
8
0
10
113.3165884
20
-37.8594003
11
123.7206159
21
-28.4915718
0
LINE
8
0
10
123.7206159
20
-28.4915718
11
114.3527874
21
-18.0875443
0
LINE
8
0
10
114.3527874
20
-18.0875443
11
103.9487599
21
-27.4553728
0
LINE
8
0
10
109.0508682
20
-10.7970151
11
122.3656595
21
-15.123253
0
LINE
8
0
10
122.3656595
20
-15.123253
11
126.6918974
21
-1.8084617
0
LINE
8
0
10
126.6918974
20
-1.8084617
11
113.3771061
21
2.5177762
0
LINE
8
0
10
113.3771061
20
2.5177762
11
109.0508682
21
-10.7970151
0
LINE
8
0
10
-9.3789299
20
91.71141
11
4.6210701
21
91.71141
0
LINE
8
0
10
4.6210701
20
91.71141
11
4.6210701
21
105.71141
0
LINE
8
0
10
4.6210701
20
105.71141
11
-9.3789299
21
105.71141
0
LINE
8
0
10
-9.3789299
20
105.71141
11
-9.3789299
21
91.71141
0
LINE
8
0
10
13.4810702
20
91.71141
11
27.4810702
21
91.71141
0
LINE
8
0
10
27.4810702
20
91.71141
11
27.4810702
21
105.71141
0
LINE
8
0
10
27.4810702
20
105.71141
11
13.4810702
21
105.71141
0
LINE
8
0
10
13.4810702
20
105.71141
11
13.4810702
21
91.71141
0
LINE
8
0
10
32.4810702
20
91.7114101
11
46.4810702
21
91.7114101
0
LINE
8
0
10
46.4810702
20
91.7114101
11
46.4810702
21
105.7114101
0
LINE
8
0
10
46.4810702
20
105.7114101
11
32.4810702
21
105.7114101
0
LINE
8
0
10
32.4810702
20
105.7114101
11
32.4810702
21
91.7114101
0
LINE
8
0
10
51.4810702
20
91.7114101
11
65.4810702
21
91.7114101
0
LINE
8
0
10
65.4810702
20
91.7114101
11
65.4810702
21
105.7114101
0
LINE
8
0
10
65.4810702
20
105.7114101
11
51.4810702
21
105.7114101
0
LINE
8
0
10
51.4810702
20
105.7114101
11
51.4810702
21
91.7114101
0
LINE
8
0
10
70.4810701
20
91.7114101
11
84.4810701
21
91.7114101
0
LINE
8
0
10
84.4810701
20
91.7114101
11
84.4810701
21
105.7114101
0
LINE
8
0
10
84.4810701
20
105.7114101
11
70.4810701
21
105.7114101
0
LINE
8
0
10
70.4810701
20
105.7114101
11
70.4810701
21
91.7114101
0
LINE
8
0
10
93.3410702
20
91.7114101
11
107.3410702
21
91.7114101
0
LINE
8
0
10
107.3410702
20
91.7114101
11
107.3410702
21
105.7114101
0
LINE
8
0
10
107.3410702
20
105.7114101
11
93.3410702
21
105.7114101
0
LINE
8
0
10
93.3410702
20
105.7114101
11
93.3410702
21
91.7114101
0
LINE
8
0
10
112.3410702
20
91.7114101
11
126.3410702
21
91.7114101
0
LINE
8
0
10
126.3410702
20
91.7114101
11
126.3410702
21
105.7114101
0
LINE
8
0
10
126.3410702
20
105.7114101
11
112.3410702
21
105.7114101
0
LINE
8
0
10
112.3410702
20
105.7114101
11
112.3410702
21
91.7114101
0
LINE
8
0
10
131.3410701
20
91.71141
11
145.3410701
21
91.71141
0
LINE
8
0
10
145.3410701
20
91.71141
11
145.3410701
21
105.71141
0
LINE
8
0
10
145.3410701
20
105.71141
11
131.3410701
21
105.71141
0
LINE
8
0
10
131.3410701
20
105.71141
11
131.3410701
21
91.71141
0
LINE
8
0
10
150.3410701
20
91.71141
11
164.3410701
21
91.71141
0
LINE
8
0
10
164.3410701
20
91.71141
11
164.3410701
21
105.71141
0
LINE
8
0
10
164.3410701
20
105.71141
11
150.3410701
21
105.71141
0
LINE
8
0
10
150.3410701
20
105.71141
11
150.3410701
21
91.71141
0
LINE
8
0
10
173.2010701
20
91.71141
11
187.2010701
21
91.71141
0
LINE
8
0
10
187.2010701
20
91.71141
11
187.2010701
21
105.71141
0
LINE
8
0
10
187.2010701
20
105.71141
11
173.2010701
21
105.71141
0
LINE
8
0
10
173.2010701
20
105.71141
11
173.2010701
21
91.71141
0
LINE
8
0
10
192.2010702
20
91.71141
11
206.2010702
21
91.71141
0
LINE
8
0
10
206.2010702
20
91.71141
11
206.2010702
21
105.71141
0
LINE
8
0
10
206.2010702
20
105.71141
11
192.2010702
21
105.71141
0
LINE
8
0
10
192.2010702
20
105.71141
11
192.2010702
21
91.71141
0
LINE
8
0
10
211.2010702
20
91.71141
11
225.2010702
21
91.71141
0
LINE
8
0
10
225.2010702
20
91.71141
11
225.2010702
21
105.71141
0
LINE
8
0
10
225.2010702
20
105.71141
11
211.2010702
21
105.71141
0
LINE
8
0
10
211.2010702
20
105.71141
11
211.2010702
21
91.71141
0
LINE
8
0
10
230.2010701
20
91.71141
11
244.2010701
21
91.71141
0
LINE
8
0
10
244.2010701
20
91.71141
11
244.2010701
21
105.71141
0
LINE
8
0
10
244.2010701
20
105.71141
11
230.2010701
21
105.71141
0
LINE
8
0
10
230.2010701
20
105.71141
11
230.2010701
21
91.71141
0
LINE
8
0
10
272.1110702
20
-3.28859
11
286.1110702
21
-3.28859
0
LINE
8
0
10
286.1110702
20
-3.28859
11
286.1110702
21
10.71141
0
LINE
8
0
10
286.1110702
20
10.71141
11
272.1110702
21
10.71141
0
LINE
8
0
10
272.1110702
20
10.71141
11
272.1110702
21
-3.28859
0
LINE
8
0
10
272.1110702
20
15.71141
11
286.1110702
21
15.71141
0
LINE
8
0
10
286.1110702
20
15.71141
11
286.1110702
21
29.71141
0
LINE
8
0
10
286.1110702
20
29.71141
11
272.1110702
21
29.71141
0
LINE
8
0
10
272.1110702
20
29.71141
11
272.1110702
21
15.71141
0
LINE
8
0
10
281.6360702
20
34.71141
11
295.6360702
21
34.71141
0
LINE
8
0
10
295.6360702
20
34.71141
11
295.6360702
21
48.71141
0
LINE
8
0
10
295.6360702
20
48.71141
11
281.6360702
21
48.71141
0
LINE
8
0
10
281.6360702
20
48.71141
11
281.6360702
21
34.71141
0
LINE
8
0
10
272.1110702
20
53.71141
11
286.1110702
21
53.71141
0
LINE
8
0
10
286.1110702
20
53.71141
11
286.1110702
21
67.71141
0
LINE
8
0
10
286.1110702
20
67.71141
11
272.1110702
21
67.71141
0
LINE
8
0
10
272.1110702
20
67.71141
11
272.1110702
21
53.71141
0
LINE
8
0
10
281.6360701
20
72.71141
11
295.6360701
21
72.71141
0
LINE
8
0
10
295.6360701
20
72.71141
11
295.6360701
21
86.71141
0
LINE
8
0
10
295.6360701
20
86.71141
11
281.6360701
21
86.71141
0
LINE
8
0
10
281.6360701
20
86.71141
11
281.6360701
21
72.71141
0
LINE
8
0
10
272.1110701
20
91.71141
11
286.1110701
21
91.71141
0
LINE
8
0
10
286.1110701
20
91.71141
11
286.1110701
21
105.71141
0
LINE
8
0
10
286.1110701
20
105.71141
11
272.1110701
21
105.71141
0
LINE
8
0
10
272.1110701
20
105.71141
11
272.1110701
21
91.71141
0
LINE
8
0
10
291.1110702
20
-3.28859
11
305.1110702
21
-3.28859
0
LINE
8
0
10
305.1110702
20
-3.28859
11
305.1110702
21
10.71141
0
LINE
8
0
10
305.1110702
20
10.71141
11
291.1110702
21
10.71141
0
LINE
8
0
10
291.1110702
20
10.71141
11
291.1110702
21
-3.28859
0
LINE
8
0
10
291.1110702
20
15.71141
11
305.1110702
21
15.71141
0
LINE
8
0
10
305.1110702
20
15.71141
11
305.1110702
21
29.71141
0
LINE
8
0
10
305.1110702
20
29.71141
11
291.1110702
21
29.71141
0
LINE
8
0
10
291.1110702
20
29.71141
11
291.1110702
21
15.71141
0
LINE
8
0
10
291.1110702
20
53.71141
11
305.1110702
21
53.71141
0
LINE
8
0
10
305.1110702
20
53.71141
11
305.1110702
21
67.71141
0
LINE
8
0
10
305.1110702
20
67.71141
11
291.1110702
21
67.71141
0
LINE
8
0
10
291.1110702
20
67.71141
11
291.1110702
21
53.71141
0
LINE
8
0
10
291.1110701
20
91.71141
11
305.1110701
21
91.71141
0
LINE
8
0
10
305.1110701
20
91.71141
11
305.1110701
21
105.71141
0
LINE
8
0
10
305.1110701
20
105.71141
11
291.1110701
21
105.71141
0
LINE
8
0
10
291.1110701
20
105.71141
11
291.1110701
21
91.71141
0
LINE
8
0
10
310.1110702
20
-3.28859
11
324.1110702
21
-3.28859
0
LINE
8
0
10
324.1110702
20
-3.28859
11
324.1110702
21
10.71141
0
LINE
8
0
10
324.1110702
20
10.71141
11
310.1110702
21
10.71141
0
LINE
8
0
10
310.1110702
20
10.71141
11
310.1110702
21
-3.28859
0
LINE
8
0
10
310.1110702
20
15.71141
11
324.1110702
21
15.71141
0
LINE
8
0
10
324.1110702
20
15.71141
11
324.1110702
21
29.71141
0
LINE
8
0
10
324.1110702
20
29.71141
11
310.1110702
21
29.71141
0
LINE
8
0
10
310.1110702
20
29.71141
11
310.1110702
21
15.71141
0
LINE
8
0
10
310.1110702
20
34.71141
11
324.1110702
21
34.71141
0
LINE
8
0
10
324.1110702
20
34.71141
11
324.1110702
21
48.71141
0
LINE
8
0
10
324.1110702
20
48.71141
11
310.1110702
21
48.71141
0
LINE
8
0
10
310.1110702
20
48.71141
11
310.1110702
21
34.71141
0
LINE
8
0
10
310.1110701
20
53.71141
11
324.1110701
21
53.71141
0
LINE
8
0
10
324.1110701
20
53.71141
11
324.1110701
21
67.71141
0
LINE
8
0
10
324.1110701
20
67.71141
11
310.1110701
21
67.71141
0
LINE
8
0
10
310.1110701
20
67.71141
11
310.1110701
21
53.71141
0
LINE
8
0
10
310.1110701
20
72.71141
11
324.1110701
21
72.71141
0
LINE
8
0
10
324.1110701
20
72.71141
11
324.1110701
21
86.71141
0
LINE
8
0
10
324.1110701
20
86.71141
11
310.1110701
21
86.71141
0
LINE
8
0
10
310.1110701
20
86.71141
11
310.1110701
21
72.71141
0
LINE
8
0
10
310.1110701
20
91.71141
11
324.1110701
21
91.71141
0
LINE
8
0
10
324.1110701
20
91.71141
11
324.1110701
21
105.71141
0
LINE
8
0
10
324.1110701
20
105.71141
11
310.1110701
21
105.71141
0
LINE
8
0
10
310.1110701
20
105.71141
11
310.1110701
21
91.71141
0
LINE
8
0
10
-9.3789299
20
53.61141
11
4.6210701
21
53.61141
0
LINE
8
0
10
4.6210701
20
53.61141
11
4.6210701
21
67.61141
0
LINE
8
0
10
4.6210701
20
67.61141
11
-9.3789299
21
67.61141
0
LINE
8
0
10
-9.3789299
20
67.61141
11
-9.3789299
21
53.61141
0
LINE
8
0
10
-9.3789299
20
72.61141
11
4.6210701
21
72.61141
0
LINE
8
0
10
4.6210701
20
72.61141
11
4.6210701
21
86.61141
0
LINE
8
0
10
4.6210701
20
86.61141
11
-9.3789299
21
86.61141
0
LINE
8
0
10
-9.3789299
20
86.61141
11
-9.3789299
21
72.61141
0
LINE
8
0
10
255.3050347
20
48.5864969
11
268.619826
21
52.9127348
0
LINE
8
0
10
268.619826
20
52.9127348
11
264.2935881
21
66.2275261
0
LINE
8
0
10
264.2935881
20
66.2275261
11
250.9787968
21
61.9012882
0
LINE
8
0
10
250.9787968
20
61.9012882
11
255.3050347
21
48.5864969
0
LINE
8
0
10
249.4337118
20
66.6565707
11
262.7485031
21
70.9828086
0
LINE
8
0
10
262.7485031
20
70.9828086
11
258.4222652
21
84.2975999
0
LINE
8
0
10
258.4222652
20
84.2975999
11
245.1074739
21
79.971362
0
LINE
8
0
10
245.1074739
20
79.971362
11
249.4337118
21
66.6565707
0
LINE
8
0
10
253.0610702
20
91.71141
11
267.0610702
21
91.71141
0
LINE
8
0
10
267.0610702
20
91.71141
11
267.0610702
21
105.71141
0
LINE
8
0
10
267.0610702
20
105.71141
11
253.0610702
21
105.71141
0
LINE
8
0
10
253.0610702
20
105.71141
11
253.0610702
21
91.71141
0
LINE
8
0
10
121.8660702
20
7.8914101
11
135.8660702
21
7.8914101
0
LINE
8
0
10
135.8660702
20
7.8914101
11
135.8660702
21
21.8914101
0
LINE
8
0
10
135.8660702
20
21.8914101
11
121.8660702
21
21.8914101
0
LINE
8
0
10
121.8660702
20
21.8914101
11
121.8660702
21
7.8914101
0
LINE
8
0
10
112.3410701
20
72.6614101
11
126.3410701
21
72.6614101
0
LINE
8
0
10
126.3410701
20
72.6614101
11
126.3410701
21
86.6614101
0
LINE
8
0
10
126.3410701
20
86.6614101
11
112.3410701
21
86.6614101
0
LINE
8
0
10
112.3410701
20
86.6614101
11
112.3410701
21
72.6614101
0
LINE
8
0
10
131.3410701
20
72.6614101
11
145.3410701
21
72.6614101
0
LINE
8
0
10
145.3410701
20
72.6614101
11
145.3410701
21
86.6614101
0
LINE
8
0
10
145.3410701
20
86.6614101
11
131.3410701
21
86.6614101
0
LINE
8
0
10
131.3410701
20
86.6614101
11
131.3410701
21
72.6614101
0
LINE
8
0
10
253.9332363
20
-8.8205146
11
267.2480276
21
-4.4942767
0
LINE
8
0
10
267.2480276
20
-4.4942767
11
262.9217897
21
8.8205146
0
LINE
8
0
10
262.9217897
20
8.8205146
11
249.6069984
21
4.4942767
0
LINE
8
0
10
249.6069984
20
4.4942767
11
253.9332363
21
-8.8205146
0
LINE
8
0
10
248.0619134
20
9.2495592
11
261.3767047
21
13.5757971
0
LINE
8
0
10
261.3767047
20
13.5757971
11
257.0504668
21
26.8905884
0
LINE
8
0
10
257.0504668
20
26.8905884
11
243.7356755
21
22.5643505
0
LINE
8
0
10
243.7356755
20
22.5643505
11
248.0619134
21
9.2495592
0
LINE
8
0
10
242.1905905
20
27.319633
11
255.5053818
21
31.6458709
0
LINE
8
0
10
255.5053818
20
31.6458709
11
251.1791439
21
44.9606622
0
LINE
8
0
10
251.1791439
20
44.9606622
11
237.8643526
21
40.6344243
0
LINE
8
0
10
237.8643526
20
40.6344243
11
242.1905905
21
27.319633
0
LINE
8
0
10
236.3192676
20
45.3897068
11
249.6340589
21
49.7159447
0
LINE
8
0
10
249.6340589
20
49.7159447
11
245.307821
21
63.030736
0
LINE
8
0
10
245.307821
20
63.030736
11
231.9930297
21
58.7044981
0
LINE
8
0
10
231.9930297
20
58.7044981
11
236.3192676
21
45.3897068
0
LINE
8
0
10
230.4479447
20
63.4597806
11
243.762736
21
67.7860185
0
LINE
8
0
10
243.762736
20
67.7860185
11
239.4364981
21
81.1008098
0
LINE
8
0
10
239.4364981
20
81.1008098
11
226.1217068
21
76.7745719
0
LINE
8
0
10
226.1217068
20
76.7745719
11
230.4479447
21
63.4597806
0
LINE
8
0
10
234.6858077
20
-11.0683122
11
248.000599
21
-6.7420743
0
LINE
8
0
10
248.000599
20
-6.7420743
11
243.6743611
21
6.572717
0
LINE
8
0
10
243.6743611
20
6.572717
11
230.3595698
21
2.2464791
0
LINE
8
0
10
230.3595698
20
2.2464791
11
234.6858077
21
-11.0683122
0
LINE
8
0
10
228.8144848
20
7.0017616
11
242.1292761
21
11.3279995
0
LINE
8
0
10
242.1292761
20
11.3279995
11
237.8030382
21
24.6427908
0
LINE
8
0
10
237.8030382
20
24.6427908
11
224.4882469
21
20.3165529
0
LINE
8
0
10
224.4882469
20
20.3165529
11
228.8144848
21
7.0017616
0
LINE
8
0
10
222.943162
20
25.0718355
11
236.2579533
21
29.3980734
0
LINE
8
0
10
236.2579533
20
29.3980734
11
231.9317154
21
42.7128647
0
LINE
8
0
10
231.9317154
20
42.7128647
11
218.6169241
21
38.3866268
0
LINE
8
0
10
218.6169241
20
38.3866268
11
222.943162
21
25.0718355
0
LINE
8
0
10
217.0718391
20
43.1419093
11
230.3866304
21
47.4681472
0
LINE
8
0
10
230.3866304
20
47.4681472
11
226.0603925
21
60.7829385
0
LINE
8
0
10
226.0603925
20
60.7829385
11
212.7456012
21
56.4567006
0
LINE
8
0
10
212.7456012
20
56.4567006
11
217.0718391
21
43.1419093
0
LINE
8
0
10
211.2005162
20
61.2119831
11
224.5153075
21
65.538221
0
LINE
8
0
10
224.5153075
20
65.538221
11
220.1890696
21
78.8530123
0
LINE
8
0
10
220.1890696
20
78.8530123
11
206.8742783
21
74.5267744
0
LINE
8
0
10
206.8742783
20
74.5267744
11
211.2005162
21
61.2119831
0
LINE
8
0
10
212.4949923
20
-4.2572964
11
225.8097836
21
0.0689415
0
LINE
8
0
10
225.8097836
20
0.0689415
11
221.4835457
21
13.3837328
0
LINE
8
0
10
221.4835457
20
13.3837328
11
208.1687544
21
9.0574949
0
LINE
8
0
10
208.1687544
20
9.0574949
11
212.4949923
21
-4.2572964
0
LINE
8
0
10
206.6236694
20
13.8127774
11
219.9384607
21
18.1390153
0
LINE
8
0
10
219.9384607
20
18.1390153
11
215.6122228
21
31.4538066
0
LINE
8
0
10
215.6122228
20
31.4538066
11
202.2974315
21
27.1275687
0
LINE
8
0
10
202.2974315
20
27.1275687
11
206.6236694
21
13.8127774
0
LINE
8
0
10
200.7523465
20
31.8828512
11
214.0671378
21
36.2090891
0
LINE
8
0
10
214.0671378
20
36.2090891
11
209.7408999
21
49.5238804
0
LINE
8
0
10
209.7408999
20
49.5238804
11
196.4261086
21
45.1976425
0
LINE
8
0
10
196.4261086
20
45.1976425
11
200.7523465
21
31.8828512
0
LINE
8
0
10
194.8810236
20
49.952925
11
208.1958149
21
54.2791629
0
LINE
8
0
10
208.1958149
20
54.2791629
11
203.869577
21
67.5939542
0
LINE
8
0
10
203.869577
20
67.5939542
11
190.5547857
21
63.2677163
0
LINE
8
0
10
190.5547857
20
63.2677163
11
194.8810236
21
49.952925
0
LINE
8
0
10
189.0097007
20
68.0229988
11
202.324492
21
72.3492367
0
LINE
8
0
10
202.324492
20
72.3492367
11
197.9982541
21
85.664028
0
LINE
8
0
10
197.9982541
20
85.664028
11
184.6834628
21
81.3377901
0
LINE
8
0
10
184.6834628
20
81.3377901
11
189.0097007
21
68.0229988
0
LINE
8
0
10
192.070209
20
-2.8815687
11
205.3850003
21
1.4446692
0
LINE
8
0
10
205.3850003
20
1.4446692
11
201.0587624
21
14.7594605
0
LINE
8
0
10
201.0587624
20
14.7594605
11
187.7439711
21
10.4332226
0
LINE
8
0
10
187.7439711
20
10.4332226
11
192.070209
21
-2.8815687
0
LINE
8
0
10
186.1988861
20
15.1885052
11
199.5136774
21
19.5147431
0
LINE
8
0
10
199.5136774
20
19.5147431
11
195.1874395
21
32.8295344
0
LINE
8
0
10
195.1874395
20
32.8295344
11
181.8726482
21
28.5032965
0
LINE
8
0
10
181.8726482
20
28.5032965
11
186.1988861
21
15.1885052
0
LINE
8
0
10
180.3275632
20
33.258579
11
193.6423545
21
37.5848169
0
LINE
8
0
10
193.6423545
20
37.5848169
11
189.3161166
21
50.8996082
0
LINE
8
0
10
189.3161166
20
50.8996082
11
176.0013253
21
46.5733703
0
LINE
8
0
10
176.0013253
20
46.5733703
11
180.3275632
21
33.258579
0
LINE
8
0
10
174.4562403
20
51.3286528
11
187.7710316
21
55.6548907
0
LINE
8
0
10
187.7710316
20
55.6548907
11
183.4447937
21
68.969682
0
LINE
8
0
10
183.4447937
20
68.969682
11
170.1300024
21
64.6434441
0
LINE
8
0
10
170.1300024
20
64.6434441
11
174.4562403
21
51.3286528
0
LINE
8
0
10
168.5849174
20
69.3987266
11
181.8997087
21
73.7249645
0
LINE
8
0
10
181.8997087
20
73.7249645
11
177.5734708
21
87.0397558
0
LINE
8
0
10
177.5734708
20
87.0397558
11
164.2586795
21
82.7135179
0
LINE
8
0
10
164.2586795
20
82.7135179
11
168.5849174
21
69.3987266
0
LINE
8
0
10
176.3548447
20
-15.9999422
11
189.669636
21
-11.6737043
0
LINE
8
0
10
189.669636
20
-11.6737043
11
185.3433981
21
1.641087
0
LINE
8
0
10
185.3433981
20
1.641087
11
172.0286068
21
-2.6851509
0
LINE
8
0
10
172.0286068
20
-2.6851509
11
176.3548447
21
-15.9999422
0
LINE
8
0
10
170.4835218
20
2.0701316
11
183.7983131
21
6.3963695
0
LINE
8
0
10
183.7983131
20
6.3963695
11
179.4720752
21
19.7111608
0
LINE
8
0
10
179.4720752
20
19.7111608
11
166.1572839
21
15.3849229
0
LINE
8
0
10
166.1572839
20
15.3849229
11
170.4835218
21
2.0701316
0
LINE
8
0
10
164.6121989
20
20.1402054
11
177.9269902
21
24.4664433
0
LINE
8
0
10
177.9269902
20
24.4664433
11
173.6007523
21
37.7812346
0
LINE
8
0
10
173.6007523
20
37.7812346
11
160.285961
21
33.4549967
0
LINE
8
0
10
160.285961
20
33.4549967
11
164.6121989
21
20.1402054
0
LINE
8
0
10
158.740876
20
38.2102792
11
172.0556673
21
42.5365171
0
LINE
8
0
10
172.0556673
20
42.5365171
11
167.7294294
21
55.8513084
0
LINE
8
0
10
167.7294294
20
55.8513084
11
154.4146381
21
51.5250705
0
LINE
8
0
10
154.4146381
20
51.5250705
11
158.740876
21
38.2102792
0
LINE
8
0
10
152.8695531
20
56.280353
11
166.1843444
21
60.6065909
0
LINE
8
0
10
166.1843444
20
60.6065909
11
161.8581065
21
73.9213822
0
LINE
8
0
10
161.8581065
20
73.9213822
11
148.5433152
21
69.5951443
0
LINE
8
0
10
148.5433152
20
69.5951443
11
152.8695531
21
56.280353
0
LINE
8
0
10
159.4621256
20
-25.4947904
11
172.7769169
21
-21.1685525
0
LINE
8
0
10
172.7769169
20
-21.1685525
11
168.450679
21
-7.8537612
0
LINE
8
0
10
168.450679
20
-7.8537612
11
155.1358877
21
-12.1799991
0
LINE
8
0
10
155.1358877
20
-12.1799991
11
159.4621256
21
-25.4947904
0
LINE
8
0
10
153.5908027
20
-7.4247166
11
166.905594
21
-3.0984787
0
LINE
8
0
10
166.905594
20
-3.0984787
11
162.5793561
21
10.2163126
0
LINE
8
0
10
162.5793561
20
10.2163126
11
149.2645648
21
5.8900747
0
LINE
8
0
10
149.2645648
20
5.8900747
11
153.5908027
21
-7.4247166
0
LINE
8
0
10
147.7194798
20
10.6453572
11
161.0342711
21
14.9715951
0
LINE
8
0
10
161.0342711
20
14.9715951
11
156.7080332
21
28.2863864
0
LINE
8
0
10
156.7080332
20
28.2863864
11
143.3932419
21
23.9601485
0
LINE
8
0
10
143.3932419
20
23.9601485
11
147.7194798
21
10.6453572
0
LINE
8
0
10
141.848157
20
28.715431
11
155.1629483
21
33.0416689
0
LINE
8
0
10
155.1629483
20
33.0416689
11
150.8367104
21
46.3564602
0
LINE
8
0
10
150.8367104
20
46.3564602
11
137.5219191
21
42.0302223
0
LINE
8
0
10
137.5219191
20
42.0302223
11
141.848157
21
28.715431
0
LINE
8
0
10
135.9768341
20
46.7855048
11
149.2916254
21
51.1117427
0
LINE
8
0
10
149.2916254
20
51.1117427
11
144.9653875
21
64.426534
0
LINE
8
0
10
144.9653875
20
64.426534
11
131.6505962
21
60.1002961
0
LINE
8
0
10
131.6505962
20
60.1002961
11
135.9768341
21
46.7855048
0
LINE
8
0
10
145.1109246
20
-37.8594003
11
154.4787531
21
-27.4553728
0
LINE
8
0
10
154.4787531
20
-27.4553728
11
144.0747256
21
-18.0875443
0
LINE
8
0
10
144.0747256
20
-18.0875443
11
134.7068971
21
-28.4915718
0
LINE
8
0
10
134.7068971
20
-28.4915718
11
145.1109246
21
-37.8594003
0
LINE
8
0
10
136.0618535
20
-15.123253
11
149.3766448
21
-10.7970151
0
LINE
8
0
10
149.3766448
20
-10.7970151
11
145.0504069
21
2.5177762
0
LINE
8
0
10
145.0504069
20
2.5177762
11
131.7356156
21
-1.8084617
0
LINE
8
0
10
131.7356156
20
-1.8084617
11
136.0618535
21
-15.123253
0
CIRCLE
8
0
10
17.9585425
20
86.0942581
40
1.2
0
CIRCLE
8
0
10
37.3175024
20
-8.1191204
40
1.2
0
CIRCLE
8
0
10
128.8660702
20
-21.3035899
40
1.2
0
CIRCLE
8
0
10
151.7260702
20
85.3764101
40
1.2
0
CIRCLE
8
0
10
240.4689705
20
86.0942581
40
1.2
0
CIRCLE
8
0
10
221.1100106
20
-8.1191204
40
1.2
0
CIRCLE
8
0
10
305.6810702
20
49.33141
40
1.2
0
ENDSEC
0
EOF